<svg width="24" height="27" viewBox="0 0 24 27" fill="none" xmlns="http://www.w3.org/2000/svg">
<g clip-path="url(#clip0_1924_6510)">
<path d="M19.2744 7.8335H4.51581C4.3361 7.8335 4.1627 7.90912 4.02879 8.04589C3.89487 8.18266 3.80986 8.37098 3.79002 8.5748L2.49177 21.9081C2.48043 22.0246 2.49075 22.1425 2.52205 22.2541C2.55335 22.3658 2.60493 22.4686 2.67343 22.5559C2.74192 22.6433 2.82579 22.7131 2.91955 22.7609C3.01332 22.8088 3.11486 22.8335 3.21757 22.8335H20.5726C20.6753 22.8335 20.7769 22.8088 20.8706 22.7609C20.9644 22.7131 21.0483 22.6433 21.1168 22.5559C21.1852 22.4686 21.2368 22.3658 21.2681 22.2541C21.2994 22.1425 21.3098 22.0246 21.2984 21.9081L20.0002 8.5748C19.9803 8.37098 19.8953 8.18266 19.7614 8.04589C19.6275 7.90912 19.4541 7.8335 19.2744 7.8335Z" stroke="#1B4B66" stroke-width="2" stroke-linecap="round" stroke-linejoin="round"/>
<path d="M8.24377 6.72233C8.24377 5.61726 8.62847 4.55745 9.31322 3.77605C9.99797 2.99465 10.9267 2.55566 11.8951 2.55566C12.8635 2.55566 13.7922 2.99465 14.477 3.77605C15.1617 4.55745 15.5464 5.61726 15.5464 6.72233" stroke="#1B4B66" stroke-width="2" stroke-linecap="round" stroke-linejoin="round"/>
</g>
<defs>
<clipPath id="clip0_1924_6510">
<rect width="23.3684" height="26.6667" fill="white" transform="translate(0.210938 0.333496)"/>
</clipPath>
</defs>
</svg>
