<svg width="24" height="27" viewBox="0 0 24 27" fill="none" xmlns="http://www.w3.org/2000/svg">
<path fill-rule="evenodd" clip-rule="evenodd" d="M10.875 4.89165C7.07804 4.89165 4 8.21927 4 12.3241C4 16.4289 7.07804 19.7565 10.875 19.7565C14.672 19.7565 17.75 16.4289 17.75 12.3241C17.75 8.21927 14.672 4.89165 10.875 4.89165ZM2 12.3241C2 7.02514 5.97347 2.72949 10.875 2.72949C15.7765 2.72949 19.75 7.02514 19.75 12.3241C19.75 17.623 15.7765 21.9187 10.875 21.9187C5.97347 21.9187 2 17.623 2 12.3241Z" fill="#13101E"/>
<path fill-rule="evenodd" clip-rule="evenodd" d="M15.736 17.5798C16.1266 17.1576 16.7597 17.1576 17.1503 17.5798L21.7066 22.5056C22.0971 22.9277 22.0971 23.6123 21.7066 24.0344C21.316 24.4566 20.6829 24.4566 20.2923 24.0344L15.736 19.1087C15.3455 18.6865 15.3455 18.002 15.736 17.5798Z" fill="#13101E"/>
</svg>
