<svg width="26" height="26" viewBox="0 0 26 26" fill="none" xmlns="http://www.w3.org/2000/svg">
<path fill-rule="evenodd" clip-rule="evenodd" d="M7 1H19C22.3137 1 25 3.68629 25 7V19C25 22.3137 22.3137 25 19 25H7C3.68629 25 1 22.3137 1 19V7C1 3.68629 3.68629 1 7 1Z" stroke="#6ea9ad" stroke-width="2" stroke-linecap="round" stroke-linejoin="round"/>
<path fill-rule="evenodd" clip-rule="evenodd" d="M17.7478 12.2611C18.0491 14.2916 17.0143 16.2864 15.1807 17.2094C13.3472 18.1324 11.1284 17.7754 9.67692 16.3239C8.22541 14.8724 7.86844 12.6537 8.79144 10.8201C9.71444 8.98659 11.7093 7.95172 13.7398 8.25306C15.8126 8.56068 17.4402 10.1882 17.7478 12.2611Z" stroke="#6ea9ad" stroke-width="2" stroke-linecap="round" stroke-linejoin="round"/>
</svg>
